<svg width="146" height="47" viewBox="0 0 146 47" fill="none" xmlns="http://www.w3.org/2000/svg">
<path d="M14.3398 23.8874L6.59457 31.8073V42.9207H0.5V0H6.59457V24.0151L29.7032 0H36.6865L18.5298 19.2887L37.9562 42.9207H30.8459L14.3398 23.8874Z" fill="#FF6060"/>
<path d="M82.3958 39.4718L84.8082 34.8731C87.6015 36.7892 91.9185 38.1944 96.1085 38.1944C101.568 38.1944 103.727 36.5337 103.727 33.7235C103.727 26.4423 83.2845 32.7015 83.2845 19.7998C83.2845 13.9238 88.4903 10.0916 96.7434 10.0916C100.933 10.0916 105.758 11.2412 108.552 13.0296L106.012 17.6282C103.092 15.7121 99.9177 15.0734 96.7434 15.0734C91.6646 15.0734 89.1252 16.9895 89.1252 19.5443C89.1252 27.2087 109.567 20.9495 109.567 33.5957C109.567 39.4718 104.235 43.1762 95.6007 43.1762C90.3949 43.304 85.0621 41.6433 82.3958 39.4718Z" fill="#FF6060"/>
<path d="M145.5 23.2486V42.9206H139.913V38.5774C138.009 41.5154 134.327 43.176 129.248 43.176C121.884 43.176 117.313 39.2161 117.313 33.5955C117.313 28.3582 120.614 24.1428 130.264 24.1428H139.533V22.9931C139.533 18.0112 136.612 15.201 130.899 15.201C127.089 15.201 123.153 16.6061 120.614 18.6499L118.202 14.179C121.503 11.4965 126.328 9.96362 131.533 9.96362C140.548 10.0914 145.5 14.4345 145.5 23.2486ZM139.66 32.9568V28.3582H130.645C124.804 28.3582 123.153 30.6575 123.153 33.34C123.153 36.5336 125.82 38.5774 130.264 38.5774C134.708 38.7051 138.263 36.789 139.66 32.9568Z" fill="#FF6060"/>
<path d="M63.6042 34.3623V43.0486L67.2864 40.877V32.1907L63.6042 34.3623Z" fill="#FF6060"/>
<path d="M73.7618 23.7597L58.6524 14.9457L50.2724 10.0916L42.0193 24.5262L42.1463 38.0666L57.1287 46.8807L58.6524 45.9865V33.2125L65.3818 21.3327L72.2382 25.2926V38.0666L73.7618 37.1724V23.7597Z" fill="#FF6060"/>
</svg>
